<svg xmlns="http://www.w3.org/2000/svg" version="1.0" preserveAspectRatio="xMidYMid meet" viewBox="62.2 85 174.83 115.35">  <g transform="translate(0.000000,300.000000) scale(0.050000,-0.050000)" fill="#a38343" stroke="none"> <path d="M2950 4125 c-15 -200 -50 -511 -58 -519 -3 -3 -103 -32 -224 -64 l-218 -59 195 -1 c116 -1 195 -10 195 -22 0 -13 -147 -20 -400 -20 -384 0 -400 -2 -400 -39 0 -49 23 -53 480 -83 193 -12 352 -25 355 -27 10 -8 61 -421 75 -596 13 -168 16 -175 62 -175 44 0 48 8 48 95 0 52 14 212 30 355 16 143 29 270 30 282 0 23 257 59 560 79 267 17 300 25 300 70 0 37 -17 39 -412 39 -307 0 -409 6 -403 24 5 15 49 22 127 18 180 -7 471 237 364 305 -29 18 -49 9 -111 -52 l-76 -74 -54 69 c-65 80 -167 160 -230 179 -59 18 -68 -102 -10 -123 61 -22 142 -86 185 -146 l42 -58 -101 12 c-66 7 -110 3 -130 -13 -24 -20 -31 -16 -39 22 -21 94 -50 331 -63 512 -13 175 -17 185 -60 185 -43 0 -46 -10 -59 -175z m93 -413 c5 -66 -1 -101 -18 -107 -18 -6 -25 26 -25 117 0 147 33 139 43 -10z m5 -238 c59 -43 35 -124 -36 -124 -80 0 -112 55 -63 109 44 48 52 49 99 15z m-33 -365 c-6 -72 -16 -137 -23 -143 -28 -29 -36 20 -23 143 19 175 60 175 46 0z"/> <path d="M2728 3855 c-53 -36 -116 -94 -140 -129 l-43 -64 -83 71 c-48 41 -95 66 -112 60 -57 -22 -30 -89 65 -168 113 -94 176 -87 246 27 23 37 82 92 131 120 65 38 88 64 88 100 0 65 -36 61 -152 -17z"/> <path d="M1535 3526 c-49 -13 -44 -39 8 -38 59 3 68 -39 19 -81 -30 -25 -34 -39 -17 -50 17 -10 13 -19 -13 -29 -22 -8 -43 -3 -53 14 -14 22 -22 23 -42 3 -19 -19 -19 -31 -2 -48 34 -34 124 -2 144 52 10 26 28 53 40 60 32 20 25 105 -11 119 -17 7 -33 11 -35 10 -1 -2 -19 -7 -38 -12z"/> <path d="M4371 3502 c-6 -9 7 -22 29 -28 49 -13 53 -86 9 -150 -19 -26 -22 -44 -10 -44 12 0 28 15 35 33 11 30 15 30 38 -2 28 -39 90 -35 104 7 7 20 -1 24 -23 16 -23 -9 -36 2 -45 37 -15 61 21 108 73 95 27 -7 39 -1 39 22 0 41 -67 42 -101 1 -24 -29 -28 -29 -43 0 -19 33 -87 42 -105 13z"/> <path d="M2487 3251 c7 -18 -23 -59 -78 -108 -92 -81 -112 -135 -58 -156 20 -8 60 15 109 63 l78 76 55 -66 c60 -71 218 -180 261 -180 67 0 25 97 -65 150 -50 29 -123 97 -162 151 -67 94 -169 144 -140 70z"/> <path d="M3458 3267 c-18 -5 -45 -32 -60 -60 -34 -64 -194 -207 -231 -207 -15 0 -27 -7 -27 -15 0 -8 -6 -35 -13 -60 -26 -98 126 -33 267 113 l78 82 68 -70 c74 -77 128 -89 149 -35 10 26 -11 57 -77 118 -51 46 -92 98 -92 115 0 33 -5 34 -62 19z"/> <path d="M1335 2377 c-114 -42 -96 -141 35 -197 101 -43 120 -67 81 -99 -33 -28 -103 -12 -156 34 -31 27 -36 27 -48 -5 -29 -77 156 -139 243 -82 92 61 50 171 -77 203 -31 8 -61 27 -68 44 -13 34 33 69 72 55 87 -32 123 -33 123 -3 0 54 -117 83 -205 50z"/> <path d="M1704 2385 c-141 -7 -211 -56 -77 -54 l53 1 0 -168 c0 -148 4 -166 35 -160 29 5 36 33 41 168 l6 161 59 -9 c49 -7 59 -2 59 34 0 23 -7 40 -15 38 -8 -2 -81 -7 -161 -11z"/> <path d="M2012 2383 c-23 -37 -152 -347 -152 -365 0 -41 60 -14 72 32 11 45 22 50 111 50 85 0 101 -7 121 -50 21 -46 76 -71 76 -34 0 112 -193 423 -228 367z m107 -225 c0 -6 -30 -10 -69 -10 -81 2 -82 6 -35 103 l34 73 34 -77 c19 -42 35 -82 36 -89z"/> <path d="M2220 2389 c0 -6 25 -57 55 -115 30 -57 60 -140 65 -184 14 -113 80 -127 80 -16 1 46 24 118 60 184 69 124 72 142 29 142 -18 0 -48 -39 -71 -90 -22 -49 -47 -90 -55 -90 -8 0 -35 41 -59 90 -35 73 -104 125 -104 79z"/> <path d="M2730 2380 c-27 -45 4 -370 35 -376 29 -6 35 8 35 75 l0 81 90 0 c67 0 90 8 90 30 0 22 -23 30 -90 30 -87 0 -90 2 -90 60 0 59 2 60 95 55 71 -4 95 2 95 23 0 27 -244 48 -260 22z"/> <path d="M3074 2387 c-35 -35 -15 -390 21 -383 30 6 35 31 35 195 0 174 -16 228 -56 188z"/> <path d="M3239 2395 c-21 -89 -1 -386 26 -391 28 -6 34 16 39 127 l6 134 63 -88 c164 -226 187 -221 187 36 0 167 -4 189 -34 183 -28 -5 -33 -27 -28 -131 6 -154 8 -154 -118 5 -86 109 -135 152 -141 125z"/> <path d="M3660 2202 l0 -202 81 0 c170 0 259 72 259 210 0 105 -71 170 -187 170 -50 0 -104 5 -121 12 -28 11 -32 -14 -32 -190z m245 82 c85 -74 22 -193 -110 -208 l-75 -8 0 137 0 137 75 -14 c41 -7 91 -27 110 -44z"/> <path d="M4074 2195 l4 -185 136 0 c108 0 136 6 136 30 0 24 -22 29 -105 23 l-105 -7 0 62 c0 60 3 62 90 62 63 0 90 8 90 28 0 20 -22 25 -90 17 -86 -10 -90 -8 -90 42 0 50 5 53 100 53 76 0 100 7 100 30 0 24 -28 30 -135 30 l-135 0 4 -185z"/> <path d="M4424 2195 c6 -185 56 -275 72 -130 9 79 89 76 137 -5 20 -33 52 -60 73 -60 36 0 36 3 -3 65 -39 64 -39 66 -1 112 90 112 17 203 -163 203 l-121 0 6 -185z m197 124 c47 -25 52 -110 7 -127 -91 -35 -128 -15 -128 68 0 86 37 104 121 59z"/> </g> </svg>